<?xml version="1.0" encoding="UTF-8" standalone="no"?>
<!-- Created with Inkscape (http://www.inkscape.org/) -->

<svg
   xmlns:dc="http://purl.org/dc/elements/1.1/"
   xmlns:cc="http://creativecommons.org/ns#"
   xmlns:rdf="http://www.w3.org/1999/02/22-rdf-syntax-ns#"
   xmlns:svg="http://www.w3.org/2000/svg"
   xmlns="http://www.w3.org/2000/svg"
   xmlns:sodipodi="http://sodipodi.sourceforge.net/DTD/sodipodi-0.dtd"
   xmlns:inkscape="http://www.inkscape.org/namespaces/inkscape"
   width="144"
   height="144"
   viewBox="0 0 144 144"
   id="svg2"
   version="1.1"
   inkscape:version="0.91 r13725"
   sodipodi:docname="ic_launcher.svg"
   inkscape:export-filename="C:\home\projects\refugerestrooms-android\gfx-src\ic_launcher_web.png"
   inkscape:export-xdpi="320"
   inkscape:export-ydpi="320">
  <defs
     id="defs4" />
  <sodipodi:namedview
     id="base"
     pagecolor="#ffffff"
     bordercolor="#666666"
     borderopacity="1.0"
     inkscape:pageopacity="0"
     inkscape:pageshadow="2"
     inkscape:zoom="5.6568542"
     inkscape:cx="51.378796"
     inkscape:cy="70.540049"
     inkscape:document-units="px"
     inkscape:current-layer="layer1"
     showgrid="false"
     units="px"
     inkscape:window-width="1680"
     inkscape:window-height="988"
     inkscape:window-x="-8"
     inkscape:window-y="-8"
     inkscape:window-maximized="1" />
  <metadata
     id="metadata7">
    <rdf:RDF>
      <cc:Work
         rdf:about="">
        <dc:format>image/svg+xml</dc:format>
        <dc:type
           rdf:resource="http://purl.org/dc/dcmitype/StillImage" />
        <dc:title></dc:title>
      </cc:Work>
    </rdf:RDF>
  </metadata>
  <g
     inkscape:label="Layer 1"
     inkscape:groupmode="layer"
     id="layer1"
     transform="translate(0,-908.36216)"
     style="display:inline">
    <g
       id="g8205">
      <path
         inkscape:connector-curvature="0"
         id="path4147"
         d="m 83.130031,934.36217 a 8.9560321,9.0000065 0 0 1 -8.956033,9.00001 8.9560321,9.0000065 0 0 1 -8.95603,-9.00001 8.9560321,9.0000065 0 0 1 8.95603,-9 8.9560321,9.0000065 0 0 1 8.956033,9 z"
         style="opacity:1;fill:#000000;fill-opacity:1;fill-rule:nonzero;stroke:#ffffff;stroke-width:0;stroke-miterlimit:4;stroke-dasharray:none;stroke-opacity:1" />
      <path
         sodipodi:nodetypes="sczzzzcccccsscccssccccsscccccs"
         inkscape:connector-curvature="0"
         id="path4149"
         d="m 76.378022,946.33286 c -5.212242,0.006 -10.496324,0.0187 -12.15517,0.0293 -3.847107,0 -6.041055,2.47463 -7.27365,6.82322 -1.232595,4.34859 -7.366439,25.983 -7.856421,27.45315 -0.489983,1.47015 0.109488,3.94131 1.868965,4.54374 1.759482,0.60243 3.926355,-0.54203 4.556218,-2.25483 0.62986,-1.71281 8.099519,-23.99267 8.099519,-23.99267 0.369837,0.061 0.746093,0.10151 1.133108,0.10151 0.429155,-0.001 0.857267,-0.0425 1.278878,-0.1231 l -12.752879,40.44891 10.946262,0 c 6.6e-5,10.49591 0,21.01511 0,31.50021 0,2.4851 2.004877,4.5 4.478017,4.5 2.473139,0 4.478015,-2.0149 4.478015,-4.5 -0.0015,-10.8959 9.96e-4,-22.1152 0,-31.50021 l 2.985344,0 c 6.5e-5,10.49591 0,21.01511 0,31.50021 0,2.4851 2.004877,4.5 4.478017,4.5 2.473139,0 4.478015,-2.0149 4.478015,-4.5 -0.0015,-10.8959 9.96e-4,-22.1152 0,-31.50021 l 0,-39.68948 c 0.616984,0.29431 1.283591,0.50688 1.99023,0.60938 1.13e-4,8.68806 0,17.40629 0,26.08009 0,2.20915 1.782112,4.00001 3.980459,4.00001 2.198347,0 3.980458,-1.79086 3.980458,-4.00001 -0.0013,-11.41671 0.0011,-23.16615 0,-33.00002 l 0,-0.5 -0.01749,0 c -0.261005,-3.66272 -3.294151,-6.50017 -6.948309,-6.5 -1.374932,-0.0288 -6.515338,-0.0338 -11.727582,-0.0292 z"
         style="fill:#000000;fill-opacity:1;stroke:#ffffff;stroke-width:0;stroke-miterlimit:4;stroke-dasharray:none;stroke-opacity:1" />
    </g>
  </g>
</svg>
